<svg width="117" height="29" viewBox="0 0 117 29" fill="none" xmlns="http://www.w3.org/2000/svg">
<path d="M46.751 3.504V3.744C46.479 3.752 46.271 3.784 46.127 3.84C45.991 3.888 45.899 3.984 45.851 4.128C45.803 4.264 45.779 4.48 45.779 4.776V10.728C45.779 11.016 45.803 11.236 45.851 11.388C45.899 11.532 45.987 11.632 46.115 11.688C46.251 11.736 46.447 11.76 46.703 11.76H47.075C47.043 12.056 47.019 12.344 47.003 12.624C46.995 12.912 46.991 13.128 46.991 13.272C46.991 13.424 46.995 13.564 47.003 13.692C47.011 13.828 47.019 13.944 47.027 14.04H46.751C46.679 13.528 46.567 13.124 46.415 12.828C46.271 12.532 46.071 12.32 45.815 12.192C45.567 12.064 45.247 12 44.855 12H41.771C41.379 12 41.055 12.064 40.799 12.192C40.551 12.32 40.355 12.532 40.211 12.828C40.067 13.124 39.955 13.528 39.875 14.04H39.599C39.615 13.944 39.623 13.828 39.623 13.692C39.631 13.564 39.635 13.424 39.635 13.272C39.635 13.128 39.627 12.912 39.611 12.624C39.603 12.344 39.583 12.056 39.551 11.76H43.163C43.435 11.76 43.639 11.736 43.775 11.688C43.919 11.632 44.015 11.532 44.063 11.388C44.111 11.236 44.135 11.016 44.135 10.728V4.776C44.135 4.48 44.107 4.26 44.051 4.116C44.003 3.972 43.915 3.876 43.787 3.828C43.667 3.772 43.491 3.744 43.259 3.744H43.103C42.895 3.744 42.735 3.772 42.623 3.828C42.511 3.876 42.431 3.976 42.383 4.128C42.335 4.272 42.299 4.488 42.275 4.776C42.235 5.232 42.195 5.724 42.155 6.252C42.123 6.78 42.079 7.316 42.023 7.86C41.967 8.396 41.887 8.912 41.783 9.408C41.687 9.896 41.555 10.336 41.387 10.728C41.219 11.112 41.003 11.42 40.739 11.652C40.475 11.876 40.151 11.988 39.767 11.988V11.76C40.135 11.76 40.443 11.624 40.691 11.352C40.939 11.072 41.139 10.696 41.291 10.224C41.451 9.752 41.575 9.216 41.663 8.616C41.751 8.008 41.819 7.376 41.867 6.72C41.915 6.064 41.959 5.416 41.999 4.776C42.023 4.496 42.011 4.284 41.963 4.14C41.923 3.996 41.827 3.896 41.675 3.84C41.531 3.784 41.315 3.752 41.027 3.744V3.504C41.195 3.512 41.395 3.52 41.627 3.528C41.859 3.536 42.071 3.54 42.263 3.54C42.447 3.54 42.623 3.536 42.791 3.528C42.967 3.512 43.143 3.504 43.319 3.504C43.623 3.504 43.899 3.512 44.147 3.528C44.395 3.536 44.691 3.54 45.035 3.54C45.227 3.54 45.427 3.54 45.635 3.54C45.851 3.532 46.059 3.528 46.259 3.528C46.459 3.52 46.623 3.512 46.751 3.504ZM50.4105 5.628C50.9625 5.628 51.4505 5.74 51.8745 5.964C52.3065 6.18 52.6465 6.528 52.8945 7.008C53.1505 7.488 53.2785 8.12 53.2785 8.904C53.2785 9.688 53.1505 10.32 52.8945 10.8C52.6465 11.28 52.3065 11.628 51.8745 11.844C51.4505 12.06 50.9625 12.168 50.4105 12.168C49.8585 12.168 49.3665 12.06 48.9345 11.844C48.5025 11.628 48.1625 11.28 47.9145 10.8C47.6665 10.32 47.5425 9.688 47.5425 8.904C47.5425 8.12 47.6665 7.488 47.9145 7.008C48.1625 6.528 48.5025 6.18 48.9345 5.964C49.3665 5.74 49.8585 5.628 50.4105 5.628ZM50.4105 5.868C50.0345 5.868 49.7265 6.108 49.4865 6.588C49.2545 7.06 49.1385 7.832 49.1385 8.904C49.1385 9.976 49.2545 10.748 49.4865 11.22C49.7265 11.692 50.0345 11.928 50.4105 11.928C50.7785 11.928 51.0825 11.692 51.3225 11.22C51.5625 10.748 51.6825 9.976 51.6825 8.904C51.6825 7.832 51.5625 7.06 51.3225 6.588C51.0825 6.108 50.7785 5.868 50.4105 5.868ZM57.1376 5.628C57.4336 5.628 57.7056 5.664 57.9536 5.736C58.2096 5.8 58.4296 5.892 58.6136 6.012C58.8056 6.132 58.9576 6.284 59.0696 6.468C59.1816 6.644 59.2376 6.84 59.2376 7.056C59.2376 7.32 59.1576 7.532 58.9976 7.692C58.8376 7.852 58.6376 7.932 58.3976 7.932C58.1496 7.932 57.9456 7.86 57.7856 7.716C57.6336 7.572 57.5576 7.38 57.5576 7.14C57.5576 6.908 57.6256 6.716 57.7616 6.564C57.8976 6.412 58.0616 6.312 58.2536 6.264C58.1816 6.16 58.0696 6.076 57.9176 6.012C57.7656 5.94 57.5976 5.904 57.4136 5.904C57.1736 5.904 56.9576 5.968 56.7656 6.096C56.5736 6.216 56.4056 6.4 56.2616 6.648C56.1256 6.888 56.0176 7.188 55.9376 7.548C55.8656 7.9 55.8296 8.308 55.8296 8.772C55.8296 9.42 55.9056 9.932 56.0576 10.308C56.2176 10.684 56.4216 10.952 56.6696 11.112C56.9176 11.264 57.1816 11.34 57.4616 11.34C57.6296 11.34 57.8096 11.308 58.0016 11.244C58.1936 11.18 58.3816 11.072 58.5656 10.92C58.7576 10.768 58.9296 10.552 59.0816 10.272L59.3096 10.356C59.2216 10.636 59.0776 10.916 58.8776 11.196C58.6856 11.476 58.4336 11.708 58.1216 11.892C57.8096 12.076 57.4296 12.168 56.9816 12.168C56.4696 12.168 56.0056 12.052 55.5896 11.82C55.1736 11.58 54.8416 11.22 54.5936 10.74C54.3536 10.26 54.2336 9.664 54.2336 8.952C54.2336 8.248 54.3576 7.652 54.6056 7.164C54.8536 6.668 55.1976 6.288 55.6376 6.024C56.0856 5.76 56.5856 5.628 57.1376 5.628ZM66.2116 5.808C66.1796 6.128 66.1556 6.436 66.1396 6.732C66.1316 7.02 66.1276 7.24 66.1276 7.392C66.1276 7.552 66.1316 7.704 66.1396 7.848C66.1476 7.984 66.1556 8.096 66.1636 8.184H65.8876C65.8076 7.616 65.6916 7.18 65.5396 6.876C65.3876 6.564 65.2036 6.352 64.9876 6.24C64.7796 6.12 64.5476 6.06 64.2916 6.06H63.8716V10.764C63.8716 11.156 63.9756 11.42 64.1836 11.556C64.3916 11.684 64.6796 11.748 65.0476 11.748V12C64.8476 11.992 64.5716 11.984 64.2196 11.976C63.8756 11.96 63.5076 11.952 63.1156 11.952C62.7236 11.952 62.3516 11.96 61.9996 11.976C61.6476 11.984 61.3756 11.992 61.1836 12V11.748C61.5516 11.748 61.8396 11.692 62.0476 11.58C62.2556 11.46 62.3596 11.204 62.3596 10.812V6.06H61.8676C61.6036 6.06 61.3716 6.12 61.1716 6.24C60.9716 6.36 60.7996 6.576 60.6556 6.888C60.5196 7.192 60.4116 7.628 60.3316 8.196H60.0556C60.0716 8.1 60.0796 7.984 60.0796 7.848C60.0876 7.704 60.0916 7.556 60.0916 7.404C60.0916 7.252 60.0836 7.032 60.0676 6.744C60.0596 6.448 60.0396 6.14 60.0076 5.82H61.2436C61.4836 5.82 61.7676 5.828 62.0956 5.844C62.4316 5.852 62.7676 5.856 63.1036 5.856C63.4396 5.856 63.7756 5.848 64.1116 5.832C64.4476 5.816 64.7356 5.808 64.9756 5.808H66.2116ZM68.5305 12.084C68.1865 12.084 67.8945 12.02 67.6545 11.892C67.4145 11.756 67.2345 11.576 67.1145 11.352C66.9945 11.12 66.9345 10.864 66.9345 10.584C66.9345 10.24 67.0145 9.96 67.1745 9.744C67.3345 9.52 67.5385 9.344 67.7865 9.216C68.0425 9.08 68.3105 8.968 68.5905 8.88C68.8705 8.784 69.1345 8.696 69.3825 8.616C69.6305 8.528 69.8345 8.428 69.9945 8.316C70.1545 8.204 70.2345 8.056 70.2345 7.872V6.996C70.2345 6.74 70.1945 6.532 70.1145 6.372C70.0425 6.204 69.9305 6.08 69.7785 6C69.6345 5.912 69.4505 5.868 69.2265 5.868C69.0585 5.868 68.8825 5.892 68.6985 5.94C68.5145 5.988 68.3625 6.08 68.2425 6.216C68.4505 6.272 68.6105 6.376 68.7225 6.528C68.8425 6.68 68.9025 6.864 68.9025 7.08C68.9025 7.328 68.8185 7.524 68.6505 7.668C68.4905 7.804 68.2865 7.872 68.0385 7.872C67.7745 7.872 67.5745 7.788 67.4385 7.62C67.3025 7.452 67.2345 7.256 67.2345 7.032C67.2345 6.808 67.2905 6.624 67.4025 6.48C67.5145 6.328 67.6705 6.192 67.8705 6.072C68.0705 5.936 68.3265 5.828 68.6385 5.748C68.9505 5.668 69.2905 5.628 69.6585 5.628C70.0105 5.628 70.3225 5.668 70.5945 5.748C70.8665 5.82 71.0985 5.952 71.2905 6.144C71.4825 6.328 71.6065 6.556 71.6625 6.828C71.7185 7.1 71.7465 7.432 71.7465 7.824V11.112C71.7465 11.312 71.7705 11.456 71.8185 11.544C71.8665 11.624 71.9425 11.664 72.0465 11.664C72.1265 11.664 72.2025 11.644 72.2745 11.604C72.3465 11.564 72.4265 11.508 72.5145 11.436L72.6465 11.64C72.4705 11.776 72.2865 11.884 72.0945 11.964C71.9025 12.044 71.6705 12.084 71.3985 12.084C71.1185 12.084 70.8945 12.044 70.7265 11.964C70.5665 11.884 70.4465 11.768 70.3665 11.616C70.2945 11.464 70.2545 11.284 70.2465 11.076C70.0545 11.396 69.8185 11.644 69.5385 11.82C69.2585 11.996 68.9225 12.084 68.5305 12.084ZM69.2505 11.412C69.4425 11.412 69.6185 11.36 69.7785 11.256C69.9465 11.152 70.0985 10.996 70.2345 10.788V8.364C70.1545 8.484 70.0385 8.592 69.8865 8.688C69.7425 8.784 69.5865 8.88 69.4185 8.976C69.2505 9.072 69.0905 9.184 68.9385 9.312C68.7945 9.432 68.6705 9.584 68.5665 9.768C68.4705 9.944 68.4225 10.172 68.4225 10.452C68.4225 10.764 68.4985 11.004 68.6505 11.172C68.8025 11.332 69.0025 11.412 69.2505 11.412ZM76.3034 5.808C76.9114 5.808 77.3874 5.868 77.7314 5.988C78.0834 6.108 78.3314 6.276 78.4754 6.492C78.6274 6.708 78.7034 6.956 78.7034 7.236C78.7034 7.676 78.4714 8.052 78.0074 8.364C77.5434 8.676 76.8354 8.828 75.8834 8.82C75.8834 8.82 75.8594 8.816 75.8114 8.808C75.7714 8.792 75.7274 8.78 75.6794 8.772C75.6314 8.756 75.6074 8.748 75.6074 8.748C76.0314 8.74 76.3554 8.684 76.5794 8.58C76.8114 8.476 76.9674 8.324 77.0474 8.124C77.1274 7.916 77.1674 7.664 77.1674 7.368C77.1674 7.12 77.1394 6.9 77.0834 6.708C77.0274 6.508 76.9154 6.352 76.7474 6.24C76.5794 6.12 76.3354 6.06 76.0154 6.06C75.7594 6.06 75.5794 6.12 75.4754 6.24C75.3714 6.36 75.3194 6.588 75.3194 6.924V10.884C75.3194 11.236 75.3714 11.468 75.4754 11.58C75.5874 11.692 75.7794 11.748 76.0514 11.748C76.4354 11.748 76.7274 11.68 76.9274 11.544C77.1274 11.408 77.2634 11.232 77.3354 11.016C77.4154 10.8 77.4554 10.568 77.4554 10.32C77.4554 9.816 77.3274 9.464 77.0714 9.264C76.8234 9.064 76.4714 8.964 76.0154 8.964H74.4794C74.4794 8.964 74.4794 8.928 74.4794 8.856C74.4794 8.784 74.4794 8.748 74.4794 8.748H76.1234L76.3034 8.772C76.9674 8.772 77.4994 8.832 77.8994 8.952C78.2994 9.064 78.5834 9.236 78.7514 9.468C78.9274 9.692 79.0154 9.972 79.0154 10.308C79.0154 10.636 78.9314 10.928 78.7634 11.184C78.6034 11.44 78.3354 11.64 77.9594 11.784C77.5834 11.928 77.0754 12 76.4354 12C76.1794 12 75.8874 11.992 75.5594 11.976C75.2394 11.96 74.9074 11.952 74.5634 11.952C74.2754 11.952 73.9794 11.96 73.6754 11.976C73.3714 11.984 73.1434 11.992 72.9914 12V11.748C73.2874 11.748 73.4954 11.688 73.6154 11.568C73.7434 11.448 73.8074 11.22 73.8074 10.884V6.924C73.8074 6.588 73.7434 6.36 73.6154 6.24C73.4954 6.12 73.2874 6.06 72.9914 6.06V5.808C73.1354 5.816 73.3554 5.828 73.6514 5.844C73.9474 5.852 74.2354 5.856 74.5154 5.856C74.8514 5.856 75.1754 5.848 75.4874 5.832C75.7994 5.816 76.0714 5.808 76.3034 5.808ZM85.2008 5.628C85.5608 5.628 85.8168 5.712 85.9688 5.88C86.1288 6.048 86.2088 6.252 86.2088 6.492C86.2088 6.74 86.1328 6.94 85.9808 7.092C85.8368 7.236 85.6448 7.308 85.4048 7.308C85.2528 7.308 85.1088 7.28 84.9728 7.224C84.8448 7.16 84.7368 7.064 84.6488 6.936C84.5608 6.808 84.5168 6.652 84.5168 6.468C84.5168 6.388 84.5368 6.304 84.5768 6.216C84.6248 6.128 84.7008 6.056 84.8048 6C84.6368 6.032 84.5048 6.104 84.4088 6.216C84.3208 6.32 84.2408 6.472 84.1688 6.672C84.1048 6.872 84.0248 7.124 83.9288 7.428C83.8568 7.644 83.7768 7.848 83.6888 8.04C83.6008 8.232 83.4768 8.392 83.3168 8.52C83.1568 8.64 82.9328 8.724 82.6448 8.772L82.7168 8.688C83.2768 8.64 83.7488 8.676 84.1328 8.796C84.5168 8.916 84.8128 9.12 85.0208 9.408C85.1808 9.624 85.3048 9.884 85.3928 10.188C85.4808 10.492 85.5888 10.792 85.7168 11.088C85.8048 11.288 85.8968 11.444 85.9928 11.556C86.0968 11.66 86.2568 11.724 86.4728 11.748V12C86.3288 12.024 86.1848 12.044 86.0408 12.06C85.9048 12.076 85.7728 12.084 85.6448 12.084C85.2208 12.084 84.8888 11.996 84.6488 11.82C84.4168 11.636 84.2528 11.356 84.1568 10.98C84.1248 10.86 84.0808 10.704 84.0248 10.512C83.9688 10.312 83.9008 10.112 83.8208 9.912C83.7408 9.712 83.6408 9.54 83.5208 9.396C83.3768 9.204 83.1848 9.072 82.9448 9C82.7128 8.928 82.4128 8.9 82.0448 8.916V8.712C82.4448 8.688 82.7488 8.62 82.9568 8.508C83.1728 8.396 83.3368 8.232 83.4488 8.016C83.5608 7.8 83.6648 7.536 83.7608 7.224C83.8408 6.936 83.9288 6.672 84.0248 6.432C84.1208 6.192 84.2608 6 84.4448 5.856C84.6288 5.704 84.8808 5.628 85.2008 5.628ZM82.8368 5.808V6.06C82.5648 6.06 82.3728 6.12 82.2608 6.24C82.1488 6.36 82.0928 6.588 82.0928 6.924V10.884C82.0928 11.22 82.1488 11.448 82.2608 11.568C82.3728 11.688 82.5648 11.748 82.8368 11.748V12C82.6848 11.992 82.4648 11.984 82.1768 11.976C81.8888 11.96 81.5968 11.952 81.3008 11.952C81.0208 11.952 80.7288 11.96 80.4248 11.976C80.1288 11.984 79.9088 11.992 79.7648 12V11.748C80.0608 11.748 80.2688 11.688 80.3888 11.568C80.5168 11.448 80.5808 11.22 80.5808 10.884V6.924C80.5808 6.588 80.5168 6.36 80.3888 6.24C80.2688 6.12 80.0608 6.06 79.7648 6.06V5.808C79.9168 5.816 80.1448 5.828 80.4488 5.844C80.7608 5.852 81.0608 5.856 81.3488 5.856C81.6368 5.856 81.9208 5.852 82.2008 5.844C82.4808 5.828 82.6928 5.816 82.8368 5.808ZM88.6281 12.084C88.2841 12.084 87.9921 12.02 87.7521 11.892C87.5121 11.756 87.3321 11.576 87.2121 11.352C87.0921 11.12 87.0321 10.864 87.0321 10.584C87.0321 10.24 87.1121 9.96 87.2721 9.744C87.4321 9.52 87.6361 9.344 87.8841 9.216C88.1401 9.08 88.4081 8.968 88.6881 8.88C88.9681 8.784 89.2321 8.696 89.4801 8.616C89.7281 8.528 89.9321 8.428 90.0921 8.316C90.2521 8.204 90.3321 8.056 90.3321 7.872V6.996C90.3321 6.74 90.2921 6.532 90.2121 6.372C90.1401 6.204 90.0281 6.08 89.8761 6C89.7321 5.912 89.5481 5.868 89.3241 5.868C89.1561 5.868 88.9801 5.892 88.7961 5.94C88.6121 5.988 88.4601 6.08 88.3401 6.216C88.5481 6.272 88.7081 6.376 88.8201 6.528C88.9401 6.68 89.0001 6.864 89.0001 7.08C89.0001 7.328 88.9161 7.524 88.7481 7.668C88.5881 7.804 88.3841 7.872 88.1361 7.872C87.8721 7.872 87.6721 7.788 87.5361 7.62C87.4001 7.452 87.3321 7.256 87.3321 7.032C87.3321 6.808 87.3881 6.624 87.5001 6.48C87.6121 6.328 87.7681 6.192 87.9681 6.072C88.1681 5.936 88.4241 5.828 88.7361 5.748C89.0481 5.668 89.3881 5.628 89.7561 5.628C90.1081 5.628 90.4201 5.668 90.6921 5.748C90.9641 5.82 91.1961 5.952 91.3881 6.144C91.5801 6.328 91.7041 6.556 91.7601 6.828C91.8161 7.1 91.8441 7.432 91.8441 7.824V11.112C91.8441 11.312 91.8681 11.456 91.9161 11.544C91.9641 11.624 92.0401 11.664 92.1441 11.664C92.2241 11.664 92.3001 11.644 92.3721 11.604C92.4441 11.564 92.5241 11.508 92.6121 11.436L92.7441 11.64C92.5681 11.776 92.3841 11.884 92.1921 11.964C92.0001 12.044 91.7681 12.084 91.4961 12.084C91.2161 12.084 90.9921 12.044 90.8241 11.964C90.6641 11.884 90.5441 11.768 90.4641 11.616C90.3921 11.464 90.3521 11.284 90.3441 11.076C90.1521 11.396 89.9161 11.644 89.6361 11.82C89.3561 11.996 89.0201 12.084 88.6281 12.084ZM89.3481 11.412C89.5401 11.412 89.7161 11.36 89.8761 11.256C90.0441 11.152 90.1961 10.996 90.3321 10.788V8.364C90.2521 8.484 90.1361 8.592 89.9841 8.688C89.8401 8.784 89.6841 8.88 89.5161 8.976C89.3481 9.072 89.1881 9.184 89.0361 9.312C88.8921 9.432 88.7681 9.584 88.6641 9.768C88.5681 9.944 88.5201 10.172 88.5201 10.452C88.5201 10.764 88.5961 11.004 88.7481 11.172C88.9001 11.332 89.1001 11.412 89.3481 11.412ZM46.763 20.808V21.06C46.467 21.06 46.255 21.12 46.127 21.24C46.007 21.36 45.947 21.588 45.947 21.924V25.884C45.947 26.22 46.015 26.448 46.151 26.568C46.287 26.688 46.547 26.748 46.931 26.748C46.899 27.028 46.875 27.296 46.859 27.552C46.851 27.816 46.847 28.016 46.847 28.152C46.847 28.296 46.851 28.432 46.859 28.56C46.867 28.696 46.875 28.808 46.883 28.896H46.607C46.543 28.424 46.451 28.044 46.331 27.756C46.211 27.476 46.031 27.272 45.791 27.144C45.559 27.024 45.235 26.964 44.819 26.964C44.635 26.964 44.471 26.968 44.327 26.976C44.183 26.976 44.035 26.98 43.883 26.988C43.739 26.996 43.563 27 43.355 27C42.995 27 42.667 26.992 42.371 26.976C42.083 26.96 41.767 26.952 41.423 26.952C41.127 26.952 40.827 26.96 40.523 26.976C40.219 26.984 39.991 26.992 39.839 27V26.748C40.135 26.748 40.343 26.688 40.463 26.568C40.591 26.448 40.655 26.22 40.655 25.884V21.936C40.655 21.592 40.591 21.36 40.463 21.24C40.343 21.12 40.135 21.06 39.839 21.06V20.808C39.983 20.816 40.203 20.828 40.499 20.844C40.803 20.852 41.095 20.856 41.375 20.856C41.663 20.856 41.947 20.852 42.227 20.844C42.507 20.828 42.719 20.816 42.863 20.808V21.06C42.607 21.06 42.427 21.12 42.323 21.24C42.219 21.36 42.167 21.588 42.167 21.924V25.884C42.167 26.22 42.219 26.448 42.323 26.568C42.427 26.688 42.607 26.748 42.863 26.748H43.739C43.995 26.748 44.175 26.688 44.279 26.568C44.383 26.448 44.435 26.22 44.435 25.884V21.936C44.435 21.592 44.383 21.36 44.279 21.24C44.175 21.12 43.995 21.06 43.739 21.06V20.808C43.875 20.816 44.075 20.828 44.339 20.844C44.611 20.852 44.891 20.856 45.179 20.856C45.467 20.856 45.763 20.852 46.067 20.844C46.379 20.828 46.611 20.816 46.763 20.808ZM50.7917 20.808C51.3997 20.808 51.8757 20.868 52.2197 20.988C52.5717 21.108 52.8197 21.276 52.9637 21.492C53.1157 21.708 53.1917 21.956 53.1917 22.236C53.1917 22.676 52.9597 23.052 52.4957 23.364C52.0317 23.676 51.3237 23.828 50.3717 23.82C50.3717 23.82 50.3477 23.816 50.2997 23.808C50.2597 23.792 50.2157 23.78 50.1677 23.772C50.1197 23.756 50.0957 23.748 50.0957 23.748C50.5197 23.74 50.8437 23.684 51.0677 23.58C51.2997 23.476 51.4557 23.324 51.5357 23.124C51.6157 22.916 51.6557 22.664 51.6557 22.368C51.6557 22.12 51.6277 21.9 51.5717 21.708C51.5157 21.508 51.4037 21.352 51.2357 21.24C51.0677 21.12 50.8237 21.06 50.5037 21.06C50.2477 21.06 50.0677 21.12 49.9637 21.24C49.8597 21.36 49.8077 21.588 49.8077 21.924V25.884C49.8077 26.236 49.8597 26.468 49.9637 26.58C50.0757 26.692 50.2677 26.748 50.5397 26.748C50.9237 26.748 51.2157 26.68 51.4157 26.544C51.6157 26.408 51.7517 26.232 51.8237 26.016C51.9037 25.8 51.9437 25.568 51.9437 25.32C51.9437 24.816 51.8157 24.464 51.5597 24.264C51.3117 24.064 50.9597 23.964 50.5037 23.964H48.9677C48.9677 23.964 48.9677 23.928 48.9677 23.856C48.9677 23.784 48.9677 23.748 48.9677 23.748H50.6117L50.7917 23.772C51.4557 23.772 51.9877 23.832 52.3877 23.952C52.7877 24.064 53.0717 24.236 53.2397 24.468C53.4157 24.692 53.5037 24.972 53.5037 25.308C53.5037 25.636 53.4197 25.928 53.2517 26.184C53.0917 26.44 52.8237 26.64 52.4477 26.784C52.0717 26.928 51.5637 27 50.9237 27C50.6677 27 50.3757 26.992 50.0477 26.976C49.7277 26.96 49.3957 26.952 49.0517 26.952C48.7637 26.952 48.4677 26.96 48.1637 26.976C47.8597 26.984 47.6317 26.992 47.4797 27V26.748C47.7757 26.748 47.9837 26.688 48.1037 26.568C48.2317 26.448 48.2957 26.22 48.2957 25.884V21.924C48.2957 21.588 48.2317 21.36 48.1037 21.24C47.9837 21.12 47.7757 21.06 47.4797 21.06V20.808C47.6237 20.816 47.8437 20.828 48.1397 20.844C48.4357 20.852 48.7237 20.856 49.0037 20.856C49.3397 20.856 49.6637 20.848 49.9757 20.832C50.2877 20.816 50.5597 20.808 50.7917 20.808ZM57.2771 20.628C57.9811 20.628 58.5331 20.84 58.9331 21.264C59.3331 21.688 59.5331 22.364 59.5331 23.292H55.4891L55.4771 23.064H58.1411C58.1571 22.672 58.1331 22.312 58.0691 21.984C58.0051 21.648 57.9011 21.38 57.7571 21.18C57.6211 20.98 57.4411 20.88 57.2171 20.88C56.9131 20.88 56.6491 21.06 56.4251 21.42C56.2011 21.772 56.0611 22.352 56.0051 23.16L56.0531 23.232C56.0371 23.336 56.0251 23.448 56.0171 23.568C56.0171 23.688 56.0171 23.808 56.0171 23.928C56.0171 24.48 56.0971 24.936 56.2571 25.296C56.4171 25.656 56.6251 25.92 56.8811 26.088C57.1371 26.256 57.4011 26.34 57.6731 26.34C57.8571 26.34 58.0451 26.312 58.2371 26.256C58.4291 26.2 58.6171 26.096 58.8011 25.944C58.9851 25.792 59.1531 25.576 59.3051 25.296L59.5331 25.392C59.4451 25.672 59.2971 25.952 59.0891 26.232C58.8891 26.504 58.6291 26.728 58.3091 26.904C57.9891 27.08 57.6131 27.168 57.1811 27.168C56.6371 27.168 56.1571 27.048 55.7411 26.808C55.3251 26.568 55.0011 26.212 54.7691 25.74C54.5371 25.26 54.4211 24.676 54.4211 23.988C54.4211 23.26 54.5411 22.648 54.7811 22.152C55.0291 21.656 55.3691 21.28 55.8011 21.024C56.2331 20.76 56.7251 20.628 57.2771 20.628ZM66.5397 20.808C66.5077 21.128 66.4837 21.436 66.4677 21.732C66.4597 22.02 66.4557 22.24 66.4557 22.392C66.4557 22.552 66.4597 22.704 66.4677 22.848C66.4757 22.984 66.4837 23.096 66.4917 23.184H66.2157C66.1357 22.616 66.0197 22.18 65.8677 21.876C65.7157 21.564 65.5317 21.352 65.3157 21.24C65.1077 21.12 64.8757 21.06 64.6197 21.06H64.1997V25.764C64.1997 26.156 64.3037 26.42 64.5117 26.556C64.7197 26.684 65.0077 26.748 65.3757 26.748V27C65.1757 26.992 64.8997 26.984 64.5477 26.976C64.2037 26.96 63.8357 26.952 63.4437 26.952C63.0517 26.952 62.6797 26.96 62.3277 26.976C61.9757 26.984 61.7037 26.992 61.5117 27V26.748C61.8797 26.748 62.1677 26.692 62.3757 26.58C62.5837 26.46 62.6877 26.204 62.6877 25.812V21.06H62.1957C61.9317 21.06 61.6997 21.12 61.4997 21.24C61.2997 21.36 61.1277 21.576 60.9837 21.888C60.8477 22.192 60.7397 22.628 60.6597 23.196H60.3837C60.3997 23.1 60.4077 22.984 60.4077 22.848C60.4157 22.704 60.4197 22.556 60.4197 22.404C60.4197 22.252 60.4117 22.032 60.3957 21.744C60.3877 21.448 60.3677 21.14 60.3357 20.82H61.5717C61.8117 20.82 62.0957 20.828 62.4237 20.844C62.7597 20.852 63.0957 20.856 63.4317 20.856C63.7677 20.856 64.1037 20.848 64.4397 20.832C64.7757 20.816 65.0637 20.808 65.3037 20.808H66.5397ZM70.2386 20.628C70.7906 20.628 71.2786 20.74 71.7026 20.964C72.1346 21.18 72.4746 21.528 72.7226 22.008C72.9786 22.488 73.1066 23.12 73.1066 23.904C73.1066 24.688 72.9786 25.32 72.7226 25.8C72.4746 26.28 72.1346 26.628 71.7026 26.844C71.2786 27.06 70.7906 27.168 70.2386 27.168C69.6866 27.168 69.1946 27.06 68.7626 26.844C68.3306 26.628 67.9906 26.28 67.7426 25.8C67.4946 25.32 67.3706 24.688 67.3706 23.904C67.3706 23.12 67.4946 22.488 67.7426 22.008C67.9906 21.528 68.3306 21.18 68.7626 20.964C69.1946 20.74 69.6866 20.628 70.2386 20.628ZM70.2386 20.868C69.8626 20.868 69.5546 21.108 69.3146 21.588C69.0826 22.06 68.9666 22.832 68.9666 23.904C68.9666 24.976 69.0826 25.748 69.3146 26.22C69.5546 26.692 69.8626 26.928 70.2386 26.928C70.6066 26.928 70.9106 26.692 71.1506 26.22C71.3906 25.748 71.5106 24.976 71.5106 23.904C71.5106 22.832 71.3906 22.06 71.1506 21.588C70.9106 21.108 70.6066 20.868 70.2386 20.868ZM77.2057 20.808C77.8137 20.808 78.2897 20.868 78.6337 20.988C78.9857 21.108 79.2337 21.276 79.3777 21.492C79.5297 21.708 79.6057 21.956 79.6057 22.236C79.6057 22.676 79.3737 23.052 78.9097 23.364C78.4457 23.676 77.7377 23.828 76.7857 23.82C76.7857 23.82 76.7617 23.816 76.7137 23.808C76.6737 23.792 76.6297 23.78 76.5817 23.772C76.5337 23.756 76.5097 23.748 76.5097 23.748C76.9337 23.74 77.2577 23.684 77.4817 23.58C77.7137 23.476 77.8697 23.324 77.9497 23.124C78.0297 22.916 78.0697 22.664 78.0697 22.368C78.0697 22.12 78.0417 21.9 77.9857 21.708C77.9297 21.508 77.8177 21.352 77.6497 21.24C77.4817 21.12 77.2377 21.06 76.9177 21.06C76.6617 21.06 76.4817 21.12 76.3777 21.24C76.2737 21.36 76.2217 21.588 76.2217 21.924V25.884C76.2217 26.236 76.2737 26.468 76.3777 26.58C76.4897 26.692 76.6817 26.748 76.9537 26.748C77.3377 26.748 77.6297 26.68 77.8297 26.544C78.0297 26.408 78.1657 26.232 78.2377 26.016C78.3177 25.8 78.3577 25.568 78.3577 25.32C78.3577 24.816 78.2297 24.464 77.9737 24.264C77.7257 24.064 77.3737 23.964 76.9177 23.964H75.3817C75.3817 23.964 75.3817 23.928 75.3817 23.856C75.3817 23.784 75.3817 23.748 75.3817 23.748H77.0257L77.2057 23.772C77.8697 23.772 78.4017 23.832 78.8017 23.952C79.2017 24.064 79.4857 24.236 79.6537 24.468C79.8297 24.692 79.9177 24.972 79.9177 25.308C79.9177 25.636 79.8337 25.928 79.6657 26.184C79.5057 26.44 79.2377 26.64 78.8617 26.784C78.4857 26.928 77.9777 27 77.3377 27C77.0817 27 76.7897 26.992 76.4617 26.976C76.1417 26.96 75.8097 26.952 75.4657 26.952C75.1777 26.952 74.8817 26.96 74.5777 26.976C74.2737 26.984 74.0457 26.992 73.8937 27V26.748C74.1897 26.748 74.3977 26.688 74.5177 26.568C74.6457 26.448 74.7097 26.22 74.7097 25.884V21.924C74.7097 21.588 74.6457 21.36 74.5177 21.24C74.3977 21.12 74.1897 21.06 73.8937 21.06V20.808C74.0377 20.816 74.2577 20.828 74.5537 20.844C74.8497 20.852 75.1377 20.856 75.4177 20.856C75.7537 20.856 76.0777 20.848 76.3897 20.832C76.7017 20.816 76.9737 20.808 77.2057 20.808Z" fill="url(#paint0_linear_19_27)"/>
<circle cx="13.8345" cy="14.8345" r="13.8345" fill="url(#paint1_linear_19_27)"/>
<defs>
<linearGradient id="paint0_linear_19_27" x1="87.8644" y1="-2.38241" x2="35.3735" y2="22.7187" gradientUnits="userSpaceOnUse">
<stop offset="0.279902" stop-color="#C38B34"/>
<stop offset="0.803825" stop-color="#ECC47E"/>
</linearGradient>
<linearGradient id="paint1_linear_19_27" x1="20.2455" y1="0.999995" x2="-2.06346" y2="2.77798" gradientUnits="userSpaceOnUse">
<stop stop-color="#C38B34"/>
<stop offset="1" stop-color="#ECC47E"/>
</linearGradient>
</defs>
</svg>
